<?xml version="1.0" encoding="utf-8"?>
<!-- Uploaded to: SVG Repo, www.svgrepo.com, Generator: SVG Repo Mixer Tools -->
<svg fill="#000000" width="800px" height="800px" viewBox="0 0 32 32" version="1.1" xmlns="http://www.w3.org/2000/svg">
<title>code</title>
<path d="M21.656 1.837c-0.136-0.055-0.293-0.087-0.458-0.087-0.525 0-0.975 0.324-1.16 0.784l-0.003 0.008-10.255 26.058c-0.056 0.137-0.089 0.296-0.089 0.463 0 0.69 0.559 1.25 1.25 1.25 0.528 0 0.98-0.328 1.163-0.791l0.003-0.008 10.257-26.056c0.055-0.135 0.086-0.292 0.086-0.457 0-0.526-0.325-0.977-0.785-1.162l-0.008-0.003zM9.884 22.115l-6.173-6.172 6.229-7.121c0.192-0.219 0.309-0.507 0.309-0.823 0-0.69-0.56-1.25-1.25-1.25-0.374 0-0.71 0.165-0.939 0.425l-0.001 0.001-7 8.001c-0.192 0.219-0.31 0.507-0.31 0.823 0 0.345 0.14 0.658 0.366 0.884v0l7 7.001c0.226 0.226 0.539 0.366 0.884 0.366 0.691 0 1.251-0.56 1.251-1.251 0-0.346-0.14-0.658-0.367-0.885v0zM30.941 15.177l-7-8c-0.23-0.263-0.567-0.427-0.941-0.427-0.691 0-1.251 0.56-1.251 1.251 0 0.316 0.117 0.605 0.31 0.825l-0.001-0.001 6.23 7.12-6.174 6.172c-0.226 0.226-0.366 0.539-0.366 0.884 0 0.691 0.56 1.251 1.251 1.251 0.345 0 0.658-0.14 0.884-0.366l7-7.001c0.226-0.226 0.366-0.539 0.366-0.884 0-0.316-0.117-0.605-0.311-0.825l0.001 0.001z"></path>
</svg>